<?xml version="1.0" encoding="UTF-8"?><svg id="Layer_1" xmlns="http://www.w3.org/2000/svg" viewBox="0 0 139.56 383.16"><defs><style>.cls-1{fill:#f3dc4c;}.cls-2{fill:#f3dc48;}.cls-3{fill:#fa804d;}.cls-4{fill:#fa7f4d;}.cls-5{fill:#fb7f4b;}.cls-6{fill:#fb7e4a;}.cls-7{fill:#fd5f4b;}.cls-8{fill:#fbf47e;}.cls-9{fill:#fbf37f;}.cls-10{fill:#fd604c;}.cls-11{fill:#fd5e49;}.cls-12{fill:#736dd8;}.cls-13{fill:#98d2f1;}.cls-14{fill:#98d2f2;}.cls-15{fill:#928dfd;}.cls-16{fill:#938dfd;}.cls-17{fill:#84b3f0;}.cls-18{fill:#84b2f0;}.cls-19{fill:#84b3ef;}.cls-20{fill:#85b3ef;}.cls-21{fill:#85b1f0;}.cls-22{fill:#adf1f4;}.cls-23{fill:#aef0f4;}.cls-24{fill:#d5f8f9;}.cls-25{fill:#d5f7f9;}.cls-26{fill:#99d2f1;}.cls-27{fill:#83b3f0;}</style></defs><path class="cls-14" d="M24.78,383.16c-4.9-2.44-10.31-4.22-14.6-7.47-6.97-5.28-9.88-13.02-9.93-21.76,11.65,.08,23.31,.16,34.96,.23-.23,4.04-.03,8.16-.79,12.09-1.1,5.7-2.89,11.28-4.39,16.91h-5.25Z"/><path class="cls-14" d="M105.78,383.16c-4.88-2.48-10.25-4.32-14.53-7.58-6.87-5.23-9.96-12.73-9.59-21.49,11.52,.02,23.04,.03,34.56,.05-.24,4.67,0,9.42-.84,13.97-.94,5.11-2.86,10.04-4.35,15.04h-5.25Z"/><path class="cls-18" d="M30.03,383.16c1.5-5.63,3.29-11.2,4.39-16.91,.76-3.93,.56-8.05,.79-12.09,0,0,.07-.19,.07-.19,7.55,.04,15.11,.09,22.66,.13,1,14.43-11.24,26.23-22.22,28.33-.43,.08-.79,.47-1.19,.72h-4.5Z"/><path class="cls-21" d="M111.03,383.16c1.49-5.01,3.4-9.93,4.35-15.04,.84-4.56,.6-9.31,.84-13.97,0,0,.06-.18,.06-.18,7.67-.02,15.33-.04,23-.06,.55,13.72-10.39,26.93-23.67,28.57-.78,.23-1.55,.46-2.33,.69h-2.25Z"/><path class="cls-14" d="M113.28,383.16c.78-.23,1.55-.46,2.33-.69-.07,.23-.09,.45-.08,.69h-2.25Z"/><path class="cls-14" d="M81.31,226.87c-.05-16.17-.55-32.36-.02-48.52,.46-13.84,9.2-23.72,22.48-27.28,.54-.15,1.05-.43,2.28-.96-6.6-1.6-11.83-4.03-16.21-8.38-5.64-5.59-8.12-12.4-8.65-20.03-.24-3.45,.11-6.95,.19-10.43,11.65,0,23.29-.01,34.94-.02l-.06,.27c.08,12.71,.27,25.44-3.96,37.88,.91,.1,1.75,.19,2.59,.29-.07,.24-.14,.47-.22,.7-1.02,.06-2.04,.11-3.22,.18,2.94,5.41,4.8,14.92,4.83,24.96,.05,17.06,0,34.13,0,51.19-11.65,.05-23.3,.1-34.95,.15Z"/><path class="cls-14" d="M33.87,149.68c-.09,.25-.17,.49-.26,.74-.97,0-1.94,0-3.27,0,4.86,9.72,4.33,20.05,4.75,30.05,.65,15.4,.15,30.85,.13,46.28-11.66,.05-23.33,.09-34.99,.14-.04-16.31-.4-32.63-.02-48.93,.3-12.81,9.36-23.41,21.76-26.77,.78-.21,1.54-.47,3.31-1.01-11.21-2.49-18.73-8.25-22.89-17.9C-.5,125.55-.13,118.41,.27,111.32c11.68-.02,23.36-.04,35.04-.06l-.06,.27c-.24,12.61,.03,25.27-4.11,37.75,.88,.13,1.81,.27,2.73,.41Z"/><path class="cls-26" d="M81.32,76.95c-.06-16.31-.61-32.63-.04-48.91C81.86,11.5,95.45-.73,111.12,.04c.49,.2,.98,.4,1.47,.6,0,0-.03-.04-.03-.04,3.58,12.54,3.83,25.4,3.74,38.3-.09,12.57-.01,25.14,0,37.71-1.49,.05-2.97,.12-4.46,.14-10.17,.08-20.34,.14-30.51,.21Z"/><path class="cls-13" d="M.22,76.87c-.04-16.44-.45-32.88,0-49.3C.65,11.67,14.53-.7,30.12,.03c.49,.2,.98,.4,1.47,.6,0,0-.03-.04-.03-.04,.49,2.29,1.19,4.55,1.42,6.87,.85,8.48,1.98,16.97,2.19,25.47,.36,14.55,.11,29.11,.12,43.67-11.69,.09-23.38,.18-35.08,.27Z"/><path class="cls-20" d="M35.29,76.6c0-14.56,.25-29.12-.12-43.67-.21-8.5-1.35-16.99-2.19-25.47-.23-2.31-.93-4.58-1.42-6.87,11.71-1.01,24.64,10.73,26.13,23.28,.66,5.54,.66,11.17,.67,16.76,.03,12.08-.12,24.16-.2,36.25-7.61,0-15.22,0-22.82,.01l-.05-.29Z"/><path class="cls-19" d="M116.29,76.6c0-12.57-.08-25.14,0-37.71,.09-12.91-.16-25.76-3.74-38.3,11.53-.91,26.11,9.92,26.72,26.87,.6,16.43,.06,32.91,.02,49.36-7.65,.02-15.31,.05-22.96,.07l-.05-.29Z"/><path class="cls-17" d="M35.23,226.74c.01-15.43,.52-30.88-.13-46.28-.42-10,.11-20.33-4.75-30.05,1.32,0,2.29,0,3.27,0,11.97,2.57,20.13,9.36,23.55,21.3,.58,2.02,1.13,4.13,1.14,6.2,.05,16.42-.04,32.85-.08,49.28-7.67-.01-15.34-.02-23.01-.04,.04-.14,.05-.28,.01-.42Z"/><path class="cls-17" d="M116.25,226.72c0-17.06,.05-34.13,0-51.19-.03-10.04-1.89-19.55-4.83-24.96,1.19-.06,2.21-.12,3.22-.18,7.6,1.72,14.17,5.03,18.93,11.51,3.51,4.77,5.65,10.11,5.73,15.86,.22,16.39-.01,32.79-.06,49.19-7.67,.07-15.34,.13-23.01,.2,.05-.14,.05-.29,.01-.43Z"/><path class="cls-25" d="M81.34,331.11c-.1-8.41-.26-16.83-.28-25.24-.01-7.05,.15-14.11,.23-21.16,1.48,.08,2.96,.23,4.45,.24,10.18,.07,20.36,.12,30.54,.18,0,15.22,0,30.43-.01,45.65-1.36,.04-2.72,.09-4.09,.1-10.28,.08-20.56,.16-30.84,.24Z"/><path class="cls-24" d="M.27,331.05c-.02-15.42-.03-30.85-.05-46.27,1.36,.06,2.73,.15,4.09,.16,10.32,.07,20.64,.12,30.96,.18,0,15.21,0,30.41,0,45.62-11.67,.11-23.33,.21-35,.32Z"/><path class="cls-8" d="M.24,226.88c11.66-.05,23.33-.09,34.99-.14,.04,.14,.03,.28-.01,.42,.01,11.47,.03,22.94,.04,34.41-1.48,.09-2.96,.24-4.45,.25-10.18,.06-20.36,.09-30.55,.13,0-11.69-.02-23.38-.03-35.07Z"/><path class="cls-9" d="M81.31,226.87c11.65-.05,23.3-.1,34.95-.15,.04,.15,.04,.29-.01,.43,0,11.48,.02,22.96,.03,34.44-1.48,.08-2.96,.22-4.43,.23-10.14,.07-20.28,.12-30.42,.18-.04-11.71-.07-23.42-.11-35.13Z"/><path class="cls-6" d="M.22,76.87c11.69-.09,23.38-.18,35.08-.27,0,0,.05,.29,.05,.29-.01,11.45-.02,22.91-.03,34.36-11.68,.02-23.36,.04-35.04,.06-.02-11.48-.03-22.96-.05-34.44Z"/><path class="cls-5" d="M81.32,76.95c10.17-.07,20.34-.13,30.51-.21,1.49-.01,2.97-.09,4.46-.14,0,0,.05,.29,.05,.29,0,11.45-.02,22.91-.02,34.36-11.65,0-23.29,.01-34.94,.02-.02-11.44-.04-22.88-.06-34.32Z"/><path class="cls-23" d="M35.26,330.73c0-15.21,0-30.41,0-45.62,.02-.14,0-.27-.05-.4,7.66,0,15.31,.02,22.97,.03,.1,13.41,.22,26.82,.26,40.23,0,2.07-.39,4.13-.6,6.2-7.52,0-15.05,.02-22.57,.02,0-.15-.01-.31-.02-.46Z"/><path class="cls-22" d="M116.27,330.77c0-15.22,0-30.43,.01-45.65,.01-.14,0-.27-.06-.4,7.69,.03,15.38,.05,23.07,.08-.03,15.43-.07,30.86-.1,46.29-7.63,.05-15.26,.1-22.9,.15-.01-.15-.02-.31-.03-.46Z"/><path class="cls-15" d="M81.34,331.11c10.28-.08,20.56-.15,30.84-.24,1.36-.01,2.72-.07,4.09-.1,0,.15,.02,.31,.03,.46,0,7.58,0,15.15-.01,22.73,0,0-.06,.18-.06,.18-11.52-.02-23.04-.03-34.56-.05-.11-7.66-.21-15.32-.32-22.98Z"/><path class="cls-16" d="M.27,331.05c11.67-.11,23.33-.21,35-.32,0,.15,.01,.31,.02,.46,0,7.59,0,15.18,0,22.78,0,0-.07,.19-.07,.19-11.65-.08-23.31-.15-34.96-.23,0-7.62,.01-15.25,.02-22.87Z"/><path class="cls-4" d="M81.41,262c10.14-.06,20.28-.1,30.42-.18,1.48-.01,2.96-.15,4.43-.23v.35c-.01,7.59-.03,15.19-.05,22.78,.05,.13,.07,.26,.06,.4-10.18-.06-20.36-.1-30.54-.18-1.48-.01-2.97-.15-4.45-.24,.04-7.57,.08-15.14,.12-22.7Z"/><path class="cls-2" d="M116.27,261.59c0-11.48-.02-22.96-.03-34.44,7.67-.07,15.34-.13,23.01-.2,0,11.64,0,23.28-.01,34.91-7.65,.02-15.31,.05-22.96,.07v-.35Z"/><path class="cls-3" d="M.26,261.95c10.18-.04,20.36-.07,30.55-.13,1.48,0,2.96-.16,4.45-.25,0,0,.02,.36,.02,.36-.02,7.6-.04,15.19-.06,22.79,.05,.13,.07,.26,.05,.4-10.32-.06-20.64-.11-30.96-.18-1.37,0-2.73-.1-4.09-.16,.01-7.61,.03-15.22,.04-22.83Z"/><path class="cls-1" d="M35.26,261.57c-.01-11.47-.03-22.94-.04-34.41,7.67,.01,15.34,.03,23.01,.04-.06,11.57-.12,23.14-.18,34.71-7.59,0-15.18,.02-22.77,.03l-.02-.36Z"/><path class="cls-7" d="M116.32,111.25c0-11.45,.02-22.91,.02-34.36,7.65-.02,15.31-.04,22.96-.07-.01,11.5-.03,23.01-.04,34.51-7.67,.06-15.34,.12-23.01,.18l.06-.27Z"/><path class="cls-10" d="M35.31,111.26c.01-11.45,.02-22.91,.03-34.36,7.61,0,15.22,0,22.82-.01-.02,11.47-.04,22.95-.06,34.42-7.62,.07-15.24,.15-22.86,.22l.06-.27Z"/><path class="cls-17" d="M35.25,111.52c7.62-.07,15.24-.15,22.86-.22,1.14,12.02,0,23.34-9.96,31.87-4.12,3.53-8.68,6.17-14.28,6.5-.93-.14-1.85-.28-2.73-.41,4.14-12.48,3.87-25.14,4.11-37.75Z"/><path class="cls-27" d="M116.26,111.52c7.67-.06,15.34-.12,23.01-.18,.79,10.6,.39,20.95-7.38,29.34-4.57,4.93-10.04,8.45-17.01,9.01-.84-.09-1.68-.19-2.59-.29,4.23-12.45,4.05-25.17,3.96-37.88Z"/><path class="cls-11" d="M35.28,261.93c7.59,0,15.18-.02,22.77-.03,.05,7.61,.1,15.23,.14,22.84-7.66,0-15.31-.02-22.97-.03,.02-7.6,.04-15.19,.06-22.79Z"/><path class="cls-11" d="M116.28,261.94c7.65-.02,15.31-.05,22.96-.07,.02,7.64,.03,15.29,.05,22.93-7.69-.03-15.38-.05-23.07-.08,.02-7.59,.04-15.19,.06-22.78Z"/><path class="cls-12" d="M116.29,353.96c0-7.58,0-15.16,.01-22.73,7.63-.05,15.26-.1,22.9-.14,.03,7.61,.06,15.21,.09,22.82-7.67,.02-15.33,.04-23,.06Z"/><path class="cls-12" d="M35.28,353.97c0-7.59,0-15.19,0-22.78,7.52,0,15.05-.01,22.57-.02,.03,7.64,.05,15.29,.08,22.93-7.55-.04-15.11-.09-22.66-.13Z"/><path class="cls-19" d="M112.59,.63c-.49-.2-.98-.4-1.47-.6,.49,.2,.98,.4,1.47,.6Z"/><path class="cls-20" d="M31.59,.63c-.49-.2-.98-.4-1.47-.6,.49,.2,.98,.4,1.47,.6Z"/></svg>